<svg version="1.1" id="Layer_1" xmlns="http://www.w3.org/2000/svg" xmlns:xlink="http://www.w3.org/1999/xlink" x="0px" y="0px"
	 width="100%" viewBox="0 0 496 496" xml:space="preserve">
<path fill="#000000" opacity="1.000000" stroke="none" 
	d="
M145.432800,305.856934 
	C129.747009,300.310669 119.995934,287.348236 119.780800,270.799042 
	C119.464600,246.476105 119.741920,222.145905 119.602509,197.819748 
	C119.580536,193.985123 121.185738,192.904160 124.662445,192.939529 
	C134.825394,193.042923 144.990692,193.062439 155.153458,192.957764 
	C158.895416,192.919235 160.666885,194.176468 160.422760,198.194489 
	C160.160538,202.510406 160.483002,206.858719 160.343353,211.186234 
	C160.233978,214.575653 161.607590,215.889755 165.033188,216.014572 
	C174.206955,216.348877 174.113815,216.457306 173.036499,225.449005 
	C171.997101,234.124359 173.534195,242.308624 178.250183,249.792221 
	C179.033340,251.034973 180.225189,252.086395 180.346603,254.426865 
	C176.178238,255.858856 171.709320,254.750259 167.405930,255.166306 
	C165.083511,255.390823 161.608337,253.854507 160.800247,256.922638 
	C159.855957,260.507935 159.559921,264.549927 161.401093,268.135925 
	C162.274734,269.837494 164.208420,269.677185 165.884155,269.677338 
	C171.882538,269.677917 177.883011,269.762939 183.878448,269.627563 
	C187.007874,269.556885 188.404053,270.636017 188.364655,273.936554 
	C188.245300,283.932312 188.343185,293.930481 188.317368,303.927643 
	C188.312241,305.915558 188.479019,308.318970 185.519821,308.223419 
	C172.265381,307.795319 158.854950,310.068024 145.432800,305.856934 
z"/>
<path fill="#000000" opacity="1.000000" stroke="none" 
	d="
M250.002975,221.685669 
	C265.382812,221.686234 265.366730,221.686203 265.335327,236.568329 
	C265.313141,247.067551 265.321686,257.566986 265.369202,268.066071 
	C265.376648,269.713348 265.411011,271.435364 265.877075,272.989655 
	C266.763184,275.944550 268.952972,277.276886 272.032440,276.770142 
	C274.658569,276.338043 276.277832,274.553131 276.461945,272.034058 
	C276.687775,268.943604 274.726501,266.515656 271.855743,266.518402 
	C266.256561,266.523712 265.778625,263.432709 265.947723,259.069092 
	C266.186432,252.911255 266.125549,246.738708 266.067810,240.573624 
	C266.033661,236.929443 267.652435,235.498505 271.270050,235.774063 
	C280.727600,236.494522 289.105530,239.608246 295.971588,246.351196 
	C297.980133,248.323761 299.066956,250.611084 299.060394,253.458633 
	C299.032013,265.791046 298.936218,278.124786 299.081726,290.455505 
	C299.156921,296.825256 294.268433,299.397888 290.179962,302.202209 
	C269.074799,316.678375 237.529922,302.056915 235.891098,276.566864 
	C234.803757,259.654175 235.661102,242.617172 235.617355,225.635895 
	C235.610458,222.957718 236.750000,221.646011 239.506943,221.699799 
	C242.838440,221.764801 246.172531,221.696365 250.002975,221.685669 
z"/>
<path fill="#000000" opacity="1.000000" stroke="none" 
	d="
M363.749695,266.357147 
	C355.824066,266.736359 348.722229,265.606934 342.186890,261.671906 
	C338.426453,259.407715 336.474945,256.455872 336.646851,251.882874 
	C336.865601,246.064713 336.676270,240.227585 336.546844,234.401215 
	C336.461334,230.553284 335.583252,227.827637 330.507111,228.031921 
	C325.303375,228.241302 324.233734,226.179749 325.653473,220.998871 
	C330.134521,204.646942 346.992920,192.981125 363.148193,195.052994 
	C382.364014,197.517380 394.855072,211.672607 395.445496,230.221588 
	C396.031982,248.644394 381.397430,264.530457 363.749695,266.357147 
M360.355255,225.403397 
	C357.486877,225.358459 355.714539,226.744232 354.843109,229.465088 
	C354.258942,231.289185 354.871094,232.729980 356.072052,233.992325 
	C357.714111,235.718399 359.783508,236.208008 361.993530,235.454285 
	C364.078125,234.743362 365.268036,232.985596 365.298431,230.901871 
	C365.338562,228.149536 363.822479,226.244720 360.355255,225.403397 
z"/>
<path fill="#000000" opacity="1.000000" stroke="none" 
	d="
M189.169418,256.888611 
	C177.415497,246.594360 173.032288,234.180450 177.627518,219.457855 
	C182.287918,204.526505 193.198853,196.682129 208.470352,194.916672 
	C222.769424,193.263641 239.955902,204.737427 242.381470,217.214752 
	C241.928986,218.102859 241.065887,218.111069 240.252319,218.166946 
	C232.089096,218.727707 232.084839,218.724350 232.074860,226.781830 
	C232.061432,237.606232 231.955338,248.431946 232.098541,259.254333 
	C232.149918,263.137329 230.708908,264.520538 226.813950,264.427460 
	C214.562363,264.134735 215.959854,265.832428 215.844223,253.457672 
	C215.774200,245.964615 215.761368,238.470093 215.827637,230.977142 
	C215.858444,227.493256 214.538010,224.920776 210.967728,224.598221 
	C207.930771,224.323868 205.729416,226.286972 205.578720,229.318039 
	C205.399460,232.923386 207.752441,234.760727 211.249649,234.864822 
	C214.193939,234.952484 215.362885,236.265823 215.315689,239.205765 
	C215.203430,246.198227 215.175293,253.195633 215.315933,260.186981 
	C215.384277,263.585297 213.763367,264.374176 210.722733,264.395050 
	C202.743164,264.449860 195.680634,262.053253 189.169418,256.888611 
z"/>
<path fill="#000000" opacity="1.000000" stroke="none" 
	d="
M332.410583,239.315033 
	C332.403503,262.927948 332.281494,286.080902 332.484283,309.230988 
	C332.526276,314.023621 331.078033,315.722778 326.245422,315.449646 
	C319.769775,315.083649 313.257538,315.267181 306.763458,315.370697 
	C303.800537,315.417938 302.623413,314.297607 302.631805,311.270630 
	C302.701355,286.120209 302.710419,260.969330 302.626129,235.818954 
	C302.614929,232.476685 304.040466,231.532745 307.130249,231.530609 
	C312.953918,231.526581 318.776367,231.162033 324.601196,231.077164 
	C332.492279,230.962189 332.493042,231.014587 332.410583,239.315033 
z"/>
</svg>